<?xml version="1.0" encoding="UTF-8" standalone="no"?>
<svg width="512px" height="432px" viewBox="0 0 512 432" version="1.1" xmlns="http://www.w3.org/2000/svg" xmlns:xlink="http://www.w3.org/1999/xlink" xmlns:sketch="http://www.bohemiancoding.com/sketch/ns">
    <!-- Generator: Sketch 3.4.4 (17249) - http://www.bohemiancoding.com/sketch -->
    <title>reddit</title>
    <desc>Created with Sketch.</desc>
    <defs></defs>
    <g id="Page-1" stroke="none" stroke-width="1" fill="none" fill-rule="evenodd" sketch:type="MSPage">
        <g id="reddit" sketch:type="MSLayerGroup" fill="#E5EEC1">
            <g id="Group" sketch:type="MSShapeGroup">
                <path d="M512,210.961 C512,178.754 485.799,152.556 453.596,152.556 C439.035,152.556 425.713,157.924 415.473,166.773 C375.817,141.034 324.485,126.009 269.549,123.877 L298.572,29.24 L383.008,48.142 C383.006,48.37 382.975,48.59 382.975,48.818 C382.975,75.431 404.629,97.084 431.241,97.084 C457.853,97.084 479.507,75.432 479.507,48.818 C479.507,22.204 457.855,0.553 431.241,0.553 C411.241,0.553 394.05,12.782 386.735,30.154 L294.294,9.46 C289.61,8.411 284.911,11.141 283.505,15.731 L250.399,123.675 C192.482,124.604 138.091,139.797 96.527,166.775 C86.289,157.927 72.964,152.558 58.404,152.558 C26.201,152.558 0.002,178.757 0.002,210.963 C0.002,232.085 11.273,250.622 28.115,260.881 C27.255,266.365 26.802,271.912 26.802,277.514 C26.802,319.369 51.157,358.448 95.379,387.537 C138.416,415.85 195.457,431.447 256,431.447 C316.538,431.447 373.583,415.847 416.62,387.537 C460.843,358.445 485.196,319.369 485.196,277.514 C485.196,271.912 484.745,266.368 483.883,260.881 C500.727,250.621 512,232.082 512,210.961 L512,210.961 Z M431.239,18.921 C447.723,18.921 461.135,32.331 461.135,48.817 C461.135,65.299 447.723,78.713 431.239,78.713 C414.757,78.713 401.343,65.299 401.343,48.817 C401.342,32.332 414.754,18.921 431.239,18.921 L431.239,18.921 Z M18.368,210.961 C18.368,188.885 36.327,170.925 58.402,170.925 C66.761,170.925 74.524,173.508 80.95,177.903 C57.438,196.481 41.117,218.283 32.912,241.807 C24.037,234.459 18.368,223.361 18.368,210.961 L18.368,210.961 Z M256,413.076 C139.748,413.076 45.171,352.263 45.171,277.512 C45.171,274.299 45.358,271.116 45.701,267.957 C46.368,261.846 47.657,255.842 49.547,249.975 C56.609,228.061 71.92,208.066 93.298,191.398 C98.039,187.697 103.09,184.169 108.404,180.815 C146.465,156.795 198.582,141.954 256,141.954 C313.415,141.954 365.534,156.797 403.592,180.815 C408.906,184.169 413.959,187.698 418.699,191.398 C440.078,208.065 455.39,228.061 462.451,249.975 C464.342,255.842 465.631,261.846 466.297,267.957 C466.643,271.113 466.826,274.299 466.826,277.512 C466.826,352.264 372.25,413.076 256,413.076 L256,413.076 Z M479.088,241.809 C470.885,218.286 454.561,196.481 431.049,177.904 C437.475,173.509 445.237,170.926 453.596,170.926 C475.672,170.926 493.631,188.885 493.631,210.962 C493.631,223.361 487.965,234.459 479.088,241.809 L479.088,241.809 Z" id="Shape"></path>
                <path d="M325.975,336.256 C308.569,350.526 286.987,356.889 256,356.889 C225.011,356.889 203.43,350.526 186.021,336.256 C181.904,332.881 175.826,333.485 172.452,337.6 C169.075,341.719 169.677,347.795 173.796,351.172 C194.606,368.233 220.726,376.176 256,376.176 C291.274,376.176 317.393,368.233 338.204,351.172 C342.321,347.795 342.925,341.719 339.548,337.6 C336.166,333.477 330.092,332.881 325.975,336.256 L325.975,336.256 Z" id="Shape"></path>
                <path d="M214.118,250.01 C214.118,230.826 198.567,215.276 179.383,215.276 C160.196,215.276 144.643,230.826 144.643,250.01 C144.643,269.199 160.197,284.752 179.383,284.752 C198.567,284.75 214.118,269.199 214.118,250.01 L214.118,250.01 Z" id="Shape"></path>
                <path d="M334.262,215.276 C315.073,215.276 299.52,230.826 299.52,250.01 C299.52,269.199 315.073,284.752 334.262,284.752 C353.446,284.752 369,269.199 369,250.01 C369,230.826 353.446,215.276 334.262,215.276 L334.262,215.276 Z" id="Shape"></path>
            </g>
        </g>
    </g>
</svg>