<?xml version="1.0" encoding="utf-8"?>
<!-- Generator: Adobe Illustrator 15.0.0, SVG Export Plug-In . SVG Version: 6.00 Build 0)  -->
<!DOCTYPE svg PUBLIC "-//W3C//DTD SVG 1.1//EN" "http://www.w3.org/Graphics/SVG/1.1/DTD/svg11.dtd">
<svg version="1.1" id="Layer_1" xmlns="http://www.w3.org/2000/svg" xmlns:xlink="http://www.w3.org/1999/xlink" x="0px" y="0px"
	 width="530px" height="480px" viewBox="0 0 530 480" enable-background="new 0 0 530 480" xml:space="preserve">
<g id="fOirrT_1_">
	<g id="XMLID_2_">
		<g>
			<path d="M473,252c4.25,12.98-20.17,29.94-32,28c-8.02-1.32-13.26-10.42-16-16c-1.81-3.69-4.81-4.48-5-6
				c-1.04-8.28,2.86-15.33,15-18C445.7,237.65,469.87,242.43,473,252z"/>
			<path d="M470,121l-3.69,2.23L463,126c-5.22-17.36-17.77-9.62-22,3c-3.84-5.93-12.38-4.87-19-10c-7.68-5.96-9.93-16.08-16-25
				c-5.26-7.73-23.86-26.75-33-31c-1.9-0.89-6.08,0.15-9-1c-8.26-3.24-13.9-8.89-22-8c-11.42,1.25-31.67,15.68-35,29
				c-0.55,2.21,2.08,0.49,2,4c-0.09,3.93-2.99,3.77-5,8c-6.82,14.35-8.63,35.72-6,56c0.77,3.46-2.38-3.46-3-3
				c-1.22,0.9-1.76,12.57-4,14c-2.34,1.49-12.62-1.8-17-2c-10.11-0.46-24.66-0.57-33,1c-7.48,1.4-25.32,10.03-31,16
				c-6.77,7.11-10.42,17.2-15,27c-6.37,13.62-15.4,21.29-16,35c-0.03,0.71,0.37,13.41,4,12l1.67,1.67L187,253c0,1.67,0,3.33,0,5
				c-2.31,0.31-1.11-2.89-3-3c-3.02,2.04,3.68,10.62-1,11l-3-2.67l-3,2.67c-4.18-1.82-4.6-7.4-11-7c-1.84,0.1,10.06,8.4,9,11
				c-8.04-8.74-20.21-19.88-36-24c-2.06-0.54-3.91,1.3-6,1c-4.9-0.69-9.9-4.17-15-5c-9.21-1.5-21.97-3.28-28-3
				c-4.71,0.22-16.53,3.32-19,5c-1.09,0.74-2.31,7.38-9,3l0.5-2.7L61,242c1.37-4.76-6.38-11.22-9-17c-3.73-8.23-7.2-18.48-11-28
				c-8.91-22.3-15.74-47.02-15-67c2.05-54.99,23.75-106.69,94-101c11.21,0.91,22.28,4.22,29.61,7.38c-3.17,3.2,3.61,0.39,4.39,0.62
				c8.29,2.42,22.51,11.16,32,20c6.87,6.4,17.06,25.38,25,26c5.56,0.43,15.31-11.46,24-18c21.45-16.15,57.58-29.95,92-32
				c38.36-2.28,68.06,15.5,96,29C450.31,75.2,463.27,87.56,470,121z M151,184c8.28-3.63,8.43-43.09,4-58c-1.58-5.33-5.83-9.39-7-14
				c-0.36-1.42,0.51-4.89,0-6c-5.88-12.81-28.16-28.98-45-31c-5.05-0.61-14.88-0.86-20,2c-1.24,0.69-3.9,5.29-6,7
				c-2.62,2.14-7.1,3.82-8,5c-12.71,16.57-4.96,61.71,2,79c3.04,7.56,8.62,12.8,11,18c1.24,2.7-0.43,4.38,1,6
				c1.35,1.52,4.15,0.49,5,2c0.59,1.05-0.58,4.69,0,6c3.19,7.13,11.37,11.08,18,19c-2.14-18.97-0.44-44,20-43
				C133.94,176.39,145.55,186.39,151,184z"/>
			<path d="M449,202c3.93,7.07,13.86,8.14,12,21l-1.83,2.17L459,228c-5.5-3.53-7.69,4.44-12,1l0.5-4.83L443,226
				c-2.71-6.93-2.83-19.25,1-25l2.3,1.5L449,202z"/>
			<path d="M442,313l-0.5,3.5l0.5,3.5c-2.91,3.76-7.56,5.78-12,8l-0.83-4.17L426,321c0.53-0.8,1.04-1.62,1-3l2.5-1.9L429,313
				C435.41,313.02,436.24,313.63,442,313z"/>
			<path d="M412.5,333.12L414,337c-5.17,7.26-12.42,8.83-20,15l-0.5-3.5L390,348c-0.9-1.76-2.24-3.1-4-4c-0.23,1.77,1.01,5.01-2,4
				c1.06-6.8-0.99-3.89-6-5c-13.35-2.96-34.87-9.73-45-16l2.25-2l-2.25-2c-2.58-2.6-4.27-3.11-7-1c0.3-2.63-1.38-3.28-4-3l0.5-3.5
				L319,316c-0.44-0.89-0.88-1.79-2-2l0.5-3.5L314,310c-0.98-6.45-13.99-8.4-18-3l-2.79-2.64L292,308c-7.57-2.26-4.4-6.86-7-10
				c-15.86-19.13-28.8-52.28-36-84l3.64,0.5L256,213c10.66,10.67,21.22,21.45,34,30l-2.25,2l0.25,3c-6.01,1.42-12.9,9.82-8,14
				l-0.5,4.83L284,265c3.72,1.13,0.97,4.92,4,5l1.25,2.5L292,272c0.7,2.35,3.22,8.03,5,6l2.5,0.5l2.5-0.5c0.07,4.66,1.62,9.69,8,7
				l0.17,2.83L313,288c1.02,5.31,5.5,7.16,10,9l2.5,0.5l2.5-0.5c-0.55,11.58,11.89,13.85,20,11c0.96,10.54,15.27,7.72,22,10
				c2.92,0.99,13.33,11.16,19,3c2.89,7.78,12.83,8.5,24,8L412.5,333.12z"/>
			<path d="M365,182c7.82-5.8,15.98,1.74,15,11l-4.5-0.5l0.5,4.5c-4.09,1.24-9.7,0.97-10,6l-3-0.5l-3-0.5c-1.4-6.26-2.37-12.96-2-21
				l3,0.25l2-2.25C364.44,179.23,363.35,181.98,365,182z"/>
			<path d="M151,37c-0.54,0.11-0.77-0.07-0.89-0.39C150.41,36.73,150.71,36.87,151,37z"/>
			<path d="M150.11,36.61c-0.16-0.08-0.33-0.15-0.5-0.23c0.11-0.12,0.24-0.24,0.39-0.38C150.02,36.22,150.05,36.44,150.11,36.61z"/>
		</g>
		<g>
			<path fill="none" stroke="#000000" stroke-width="2.7792" stroke-linecap="round" d="M365.5,379.5
				c-13.75,4.39-29.16-5.38-42.15-8.02c-0.22,0.64-0.189,1.05-0.149,1.449c1.35,0.99,2.52,2.41,4.3,2.57"/>
			<path fill="none" stroke="#000000" stroke-width="3.2466" stroke-linecap="round" d="M343,145
				c15.7-25.94,44.65-45.89,73.08-17.47c4.32,4.32,9.62,9.38,15.42,11.97"/>
			<path fill="none" stroke="#000000" stroke-width="3.8563" stroke-linecap="round" d="M400.91,205.95
				c-8.21-5.09-18.36-6.69-25.41-13.45"/>
			<path fill="none" stroke="#000000" stroke-width="5.0145" stroke-linecap="round" d="M400.91,205.95
				c7.85-20.62-0.69-62.34-25.01-54.3c-10.95,3.63-13.881,16.91-14.9,29.6"/>
			<path fill="none" stroke="#000000" stroke-width="6.0553" stroke-linecap="round" d="M363.1,204.1c-0.06-0.45-0.08-1.02-0.1-1.6"
				/>
			<path fill="none" stroke="#000000" stroke-width="4.2606" stroke-linecap="round" d="M363.1,204.1
				c11.841,6.1,41.391,29.39,37.811,1.85"/>
			<path fill="none" stroke="#000000" stroke-width="2.7969" stroke-linecap="round" d="M329.5,212c10.65-4.58,22.99-5.26,33.6-7.9"
				/>
			<path fill="none" stroke="#000000" stroke-width="3.3591" stroke-linecap="round" d="M322,196c5.52-2.42,19.94-6.37,20.97,1.72
				c-3.63,1.81-8.12,2.35-11.97,4.28"/>
			<path fill="none" stroke="#000000" stroke-width="2.701" stroke-linecap="round" d="M199.5,272.5
				c-6.36-23.8-8.35-51.59,1.33-74.67"/>
			<path fill="none" stroke="#000000" stroke-width="4.3546" stroke-linecap="round" d="M441.5,316.5c20.59-5.54,33.41-22.79,42-41"
				/>
			<path fill="none" stroke="#000000" stroke-width="6.2268" stroke-linecap="round" d="M412.5,333.12
				c6.24-1.8,12.4-4.09,16.67-9.29"/>
			<path fill="none" stroke="#000000" stroke-width="4.8961" stroke-linecap="round" d="M319.5,332.5c20.94,11.58,51.67,32.35,74,16
				"/>
			<path fill="none" stroke="#000000" stroke-width="2.2225" stroke-linecap="round" d="M319.5,332.5c4.1-4.61,9.45-7.36,15.75-7.5"
				/>
			<path fill="none" stroke="#000000" stroke-width="3.22" stroke-linecap="round" d="M310.07,323.93
				c3.59-3.88,9.13-4.439,12.43-8.43"/>
			<path fill="none" stroke="#000000" stroke-width="4.1057" stroke-linecap="round" d="M310.07,323.93
				c2.449,3.28,5.21,7.431,9.43,8.57"/>
			<path fill="none" stroke="#000000" stroke-width="4.7359" stroke-linecap="round" d="M301.81,315.27
				c-3.859-2.51-7.85-6.05-8.6-10.909"/>
			<path fill="none" stroke="#000000" stroke-width="4.1553" stroke-linecap="round" d="M301.81,315.27
				c1.11,4.04,4.721,6.811,8.261,8.66"/>
			<path fill="none" stroke="#000000" stroke-width="3.9428" stroke-linecap="round" d="M301.81,315.27
				c4.521-3.689,10.971-1.71,15.69-4.77"/>
			<path fill="none" stroke="#000000" stroke-width="3.7177" stroke-linecap="round" d="M337.93,282.07
				c-5.87,3.55-10.72,8.51-12.43,15.43"/>
			<path fill="none" stroke="#000000" stroke-width="4.3303" stroke-linecap="round" d="M337.93,282.07
				c30.49,11.97,58.681,30.43,91.57,34.029"/>
			<path fill="none" stroke="#000000" stroke-width="4.2373" stroke-linecap="round" d="M322.6,271.37
				c5.08,3.439,11.5,5.55,15.33,10.7"/>
			<path fill="none" stroke="#000000" stroke-width="3.5496" stroke-linecap="round" d="M322.6,271.37
				c-6.35,4.14-10,9.74-12.43,16.46"/>
			<path fill="none" stroke="#000000" stroke-width="5.73" stroke-linecap="round" d="M313.25,264.75c3.85,0.7,6.48,4.21,9.35,6.62"
				/>
			<path fill="none" stroke="#000000" stroke-width="3.4362" stroke-linecap="round" d="M313.25,264.75
				c-6.07,2.37-13.79,5.93-13.75,13.75"/>
			<path fill="none" stroke="#000000" stroke-width="5.0133" stroke-linecap="round" d="M304.25,257.75c3.62,1.01,7.54,3.32,9,7"/>
			<path fill="none" stroke="#000000" stroke-width="3.1562" stroke-linecap="round" d="M304.25,257.75
				c-6.89,2.56-11.52,8.18-15,14.75"/>
			<path fill="none" stroke="#000000" stroke-width="5.75" stroke-linecap="round" d="M293.62,250.75c3.68,2.02,9.11,2.19,10.63,7"
				/>
			<path fill="none" stroke="#000000" stroke-width="5.4589" stroke-linecap="round" d="M293.62,250.75
				c-0.73-2.89-3.08-4.9-5.87-5.75"/>
			<path fill="none" stroke="#000000" stroke-width="3.4226" stroke-linecap="round" d="M279.5,266.83
				c3.67-6.2,7.15-13.05,14.12-16.08"/>
			<path fill="none" stroke="#000000" stroke-width="3.4494" stroke-linecap="round" d="M296.5,187.5
				c-8.89-1.58-53.77-7.01-50.49,4.79c1.43,5.15,3.37,14.57,6.63,22.21"/>
			<path fill="none" stroke="#000000" stroke-width="3.0355" stroke-linecap="round" d="M218.5,286.5
				c-16.82-31.75-18.13-76.77,6-105"/>
			<path fill="none" stroke="#000000" stroke-width="3.2558" stroke-linecap="round" d="M315.5,146.5
				c10.55-25.26,32.12-53.2,63-50.5"/>
			<path fill="none" stroke="#000000" stroke-width="2.42" stroke-linecap="round" d="M317.5,113.5c11.19-15.91,31.64-26.73,51-25"
				/>
			<path fill="none" stroke="#000000" stroke-width="4.4818" stroke-linecap="round" d="M459.17,225.17
				c6.65,1.9,14.01,5.43,17.93,11.33"/>
			<path fill="none" stroke="#000000" stroke-width="4.5908" stroke-linecap="round" d="M478,191c7.35,13.63,9.07,29.52,5.79,44.64"
				/>
			<path fill="none" stroke="#000000" stroke-width="3.8173" stroke-linecap="round" d="M478,191c-10.14-16.11-29.25-3.14-31.7,11.5
				"/>
			<path fill="none" stroke="#000000" stroke-width="2.0889" stroke-linecap="round" d="M470.97,142.32
				c-6.47-1.71-11.21-7.41-18.47-6.32"/>
			<path fill="none" stroke="#000000" stroke-width="6.275" stroke-linecap="round" d="M470.97,142.32
				c1.99-6.73-1.83-13.25-4.66-19.09"/>
			<path fill="none" stroke="#000000" stroke-width="3.469" stroke-linecap="round" d="M473.3,154.5
				c4.37,10.97,7.851,25.84,4.7,36.5"/>
			<path fill="none" stroke="#000000" stroke-width="4.7566" stroke-linecap="round" d="M473.3,154.5
				c2.76-4.13-1.35-8.21-2.33-12.18"/>
			<path fill="none" stroke="#000000" stroke-width="3.0839" stroke-linecap="round" d="M446.5,144c11.3-4.21,17.53,7.61,26.8,10.5"
				/>
			<path fill="none" stroke="#000000" stroke-width="4.4472" stroke-linecap="round" d="M445,233.5c10.38,1.79,20.76,4.75,31,6.5"/>
			<path fill="none" stroke="#000000" stroke-width="4.2426" stroke-linecap="round" d="M445,233.5c-0.31-3.36-0.01-6.81,2.5-9.33"
				/>
			<path fill="none" stroke="#000000" stroke-width="4.0099" stroke-linecap="round" d="M421.5,236c7.48-3.27,15.65-1.43,23.5-2.5"
				/>
			<path fill="none" stroke="#000000" stroke-width="2.6754" stroke-linecap="round" d="M184.67,252.67
				c-0.02-10.61-0.42-21.61,3.33-31.67"/>
			<path fill="none" stroke="#000000" stroke-width="3.7736" stroke-linecap="round" d="M497.5,262.5
				c-4.16-6.96-8.84-13.66-15.67-18.33"/>
			<path fill="none" stroke="#000000" stroke-width="6.9282" stroke-linecap="round" d="M497.18,282.55
				c4.42-6.189,2.34-13.47,0.32-20.05"/>
			<path fill="none" stroke="#000000" stroke-width="6.112" stroke-linecap="round" d="M404,368
				c-23.38,14.08-42.39,37.91-72.17,38.25c-34.3,0.39-66.61-58.11-93.21-82.41c-13.85-12.66-28.85-29.859-46.01-45.89
				c-5.04-4.71-11.83-7.04-12.61-14.62"/>
			<path fill="none" stroke="#000000" stroke-width="4.7699" stroke-linecap="round" d="M404,368
				c21.38-32.47,94.5-51.64,93.18-85.45"/>
			<path fill="none" stroke="#000000" stroke-width="4.591" stroke-linecap="round" d="M313,465c55.55,6.72,86.96-49.94,91-97"/>
			<path fill="none" stroke="#000000" stroke-width="2.4211" stroke-linecap="round" d="M278.6,459.08
				c7.65,9.13,23.471,7.439,34.4,5.92"/>
			<path fill="none" stroke="#000000" stroke-width="3.0253" stroke-linecap="round" d="M278.6,459.08
				c11.49,0.47,24.11,1.13,34.4,5.92"/>
			<path fill="none" stroke="#000000" stroke-width="8.0623" stroke-linecap="round" d="M270.14,456.24
				c2.71,1.229,5.79,1.47,8.46,2.84"/>
			<path fill="none" stroke="#000000" stroke-width="4.1352" stroke-linecap="round" d="M246.5,439.5
				c8.71,3.52,17.06,10.13,23.64,16.74"/>
			<path fill="none" stroke="#000000" stroke-width="3.3166" stroke-linecap="round" d="M246.5,439.5
				c1.2,10.31,13.85,19.34,23.64,16.74"/>
			<path fill="none" stroke="#000000" stroke-width="1.8559" stroke-linecap="round" d="M227.5,418.5c-1.86-4.97-6.25-8.83-9-13"/>
			<path fill="none" stroke="#000000" stroke-width="5.3559" stroke-linecap="round" d="M227.5,418.5c7,6.35,12.79,13.76,19,21"/>
			<path fill="none" stroke="#000000" stroke-width="4.832" stroke-linecap="round" d="M120.17,285.5
				c43.02,27.96,66.15,78.22,93.6,118.73c4,5.899,7.79,12.92,13.73,14.27"/>
			<path fill="none" stroke="#000000" stroke-width="2.8091" stroke-linecap="round" d="M90.5,270.5c10.44-1,26.05,4.08,29.67,15"/>
			<path fill="none" stroke="#000000" stroke-width="2.2985" stroke-linecap="round" d="M90.5,270.5c8.65,6.19,19.67,11.02,29.67,15
				"/>
			<path fill="none" stroke="#000000" stroke-width="3.9521" stroke-linecap="round" d="M56.5,273.5c10.84-2.95,22.69-6.56,34-3"/>
			<path fill="none" stroke="#000000" stroke-width="4.4632" stroke-linecap="round" d="M4.5,303.5
				c6.17-7.84,18.27-7.51,23.91-15.23c1.77-2.42,3.45-12.359,5.56-15.67c5.72-8.96,16.82-19.859,28.53-28.3"/>
			<path fill="none" stroke="#000000" stroke-width="4.4643" stroke-linecap="round" d="M229,277.5
				c-11.74-27.24-11.19-59.72,0.71-79.64c17.6-29.48,43.55-25.34,79.79-21.36"/>
			<path fill="none" stroke="#000000" stroke-width="1.857" stroke-linecap="round" d="M295.5,166c10.19,0.04,19.92,2.95,29,7.5"/>
			<path fill="none" stroke="#000000" stroke-width="2.2511" stroke-linecap="round" d="M353.5,152.5c5.27-11.2,12.82-26.83,27-28"
				/>
			<path fill="none" stroke="#000000" stroke-width="2.8482" stroke-linecap="round" d="M394.5,105.5c-27.86-6.13-52.35,16.58-63,40
				"/>
		</g>
	</g>
</g>
</svg>
